<svg id="information_2_" data-name="information (2)" xmlns="http://www.w3.org/2000/svg" width="69.39" height="69.39" viewBox="0 0 69.39 69.39">
  <g id="Group_292" data-name="Group 292">
    <g id="Group_291" data-name="Group 291">
      <path id="Path_255" data-name="Path 255" d="M34.7,0a34.7,34.7,0,1,0,34.7,34.7A34.676,34.676,0,0,0,34.7,0Zm0,64.764A30.069,30.069,0,1,1,64.764,34.7,30.1,30.1,0,0,1,34.7,64.764Z" fill="#c62828"/>
    </g>
  </g>
  <g id="Group_294" data-name="Group 294" transform="translate(32.382 28.431)">
    <g id="Group_293" data-name="Group 293">
      <path id="Path_256" data-name="Path 256" d="M241.243,209.777a2.313,2.313,0,0,0-2.313,2.313V231.6a2.313,2.313,0,1,0,4.626,0V212.09A2.313,2.313,0,0,0,241.243,209.777Z" transform="translate(-238.93 -209.777)" fill="#c62828"/>
    </g>
  </g>
  <g id="Group_296" data-name="Group 296" transform="translate(30.069 16.822)">
    <g id="Group_295" data-name="Group 295">
      <path id="Path_257" data-name="Path 257" d="M226.493,124.122a4.626,4.626,0,1,0,4.626,4.626A4.631,4.631,0,0,0,226.493,124.122Z" transform="translate(-221.867 -124.122)" fill="#c62828"/>
    </g>
  </g>
</svg>
