<svg xmlns="http://www.w3.org/2000/svg" width="49.447" height="58.261" viewBox="0 0 49.447 58.261">
  <g id="add-to-basket" transform="matrix(1, -0.017, 0.017, 1, -39.994, 1.544)">
    <path id="Path_128" data-name="Path 128" d="M88.452,50.695a2.243,2.243,0,0,1-2.243,2.243H83.966v2.243a2.243,2.243,0,1,1-4.486,0V52.938H77.236a2.243,2.243,0,0,1,0-4.486h2.243V46.209a2.243,2.243,0,0,1,4.486,0v2.243h2.243A2.243,2.243,0,0,1,88.452,50.695Zm0-34.993V37.236a2.243,2.243,0,1,1-4.486,0V17.945H79.479v6.729a2.243,2.243,0,1,1-4.486,0V17.945H53.459v6.729a2.243,2.243,0,0,1-4.486,0V17.945H44.486V52.938H68.264a2.243,2.243,0,0,1,0,4.486H42.243A2.243,2.243,0,0,1,40,55.181V15.7a2.243,2.243,0,0,1,2.243-2.243h6.836a15.253,15.253,0,0,1,30.294,0h6.836A2.243,2.243,0,0,1,88.452,15.7ZM74.843,13.459a10.767,10.767,0,0,0-21.233,0Z" fill="#f44336"/>
  </g>
</svg>
