<svg xmlns="http://www.w3.org/2000/svg" width="36.352" height="31.176" viewBox="0 0 36.352 31.176">
  <g id="back" transform="translate(36.352 63.018) rotate(180)">
    <g id="Group_48" data-name="Group 48" transform="translate(0 31.842)">
      <path id="Path_41" data-name="Path 41" d="M34.167,44.878a2.6,2.6,0,0,0-.45-.033H8.071l.559-.26a5.2,5.2,0,0,0,1.47-1.04l7.192-7.192a2.692,2.692,0,0,0,.377-3.446,2.6,2.6,0,0,0-3.9-.338l-13,13.005a2.6,2.6,0,0,0,0,3.678l0,0,13,13a2.6,2.6,0,0,0,3.9-.26,2.692,2.692,0,0,0-.377-3.446l-7.179-7.2a5.2,5.2,0,0,0-1.3-.949l-.78-.351H33.574a2.692,2.692,0,0,0,2.744-2.185A2.6,2.6,0,0,0,34.167,44.878Z" transform="translate(0 -31.842)" fill="#fff"/>
    </g>
  </g>
</svg>
