<svg xmlns="http://www.w3.org/2000/svg" width="46.435" height="50.65" viewBox="0 0 46.435 50.65">
  <g id="bell_2_" data-name="bell (2)" transform="translate(-21.144 511.854)">
    <path id="Path_1449" data-name="Path 1449" d="M62.458-511.591a1.885,1.885,0,0,0-.832.763c-.287.465-.3.515-.337,1.922l-.03,1.446-.862.168a14.794,14.794,0,0,0-11.7,13.144c-.05.525-.1,2.645-.1,4.715,0,4.061-.059,4.754-.545,6.438a13.867,13.867,0,0,1-1.723,3.734,15.4,15.4,0,0,1-2.555,2.991,3.683,3.683,0,0,0-1.416,3.566,3.705,3.705,0,0,0,3.021,3.031c.436.079,5.418.1,18.423.079l17.829-.03.565-.228a4.058,4.058,0,0,0,1.981-1.882,2.559,2.559,0,0,0,.327-1.555c0-1.347-.258-1.823-1.941-3.516a13.862,13.862,0,0,1-4.061-7.31c-.2-.872-.218-1.4-.287-5.814-.079-5.279-.109-5.576-.743-7.538A14.919,14.919,0,0,0,66.44-507.3l-.852-.178-.05-1.426c-.059-1.6-.168-1.971-.763-2.456A2.016,2.016,0,0,0,62.458-511.591Z" transform="translate(-19.052 0)" fill="#fff"/>
    <path id="Path_1450" data-name="Path 1450" d="M29.6-495.709a12.923,12.923,0,0,0-3.1,3.209,26.266,26.266,0,0,0-5.329,14.719c-.079,1.624.01,2.06.515,2.625a2.1,2.1,0,0,0,3.368-.347c.238-.416.267-.584.347-2.03a21.443,21.443,0,0,1,2.169-8.667,21.805,21.805,0,0,1,3.635-5.359c1.07-1.189,1.228-1.476,1.228-2.149a1.854,1.854,0,0,0-.535-1.446A2.105,2.105,0,0,0,29.6-495.709Z" transform="translate(0 -14.426)" fill="#fff"/>
    <path id="Path_1451" data-name="Path 1451" d="M377.347-495.71A2.121,2.121,0,0,0,376-493.749c0,.683.188,1.04,1,1.922a22.06,22.06,0,0,1,6.091,14.59c.069,1.337.188,1.714.7,2.2a2.073,2.073,0,0,0,3.318-.664c.188-.366.2-.505.149-2.08a25.766,25.766,0,0,0-4.289-13.292c-1.377-2.07-3.3-4.249-4.051-4.6A2.1,2.1,0,0,0,377.347-495.71Z" transform="translate(-319.708 -14.424)" fill="#fff"/>
    <path id="Path_1452" data-name="Path 1452" d="M177.249-63.485a9.949,9.949,0,0,0,1.565,2.971,8.611,8.611,0,0,0,4.12,2.615,9.685,9.685,0,0,0,3.992-.04,7.977,7.977,0,0,0,5.507-5.309c.109-.366.208-.693.208-.713s-3.5-.04-7.765-.04H177.1Z" transform="translate(-140.509 -403.494)" fill="#fff"/>
  </g>
</svg>
