<svg xmlns="http://www.w3.org/2000/svg" width="44.87" height="48.994" viewBox="0 0 44.87 48.994">
  <g id="bell-_2_" transform="translate(-21.638 511.908)">
    <path id="Path_1446" data-name="Path 1446" d="M62.343-511.811a1.753,1.753,0,0,0-.46.307c-.479.45-.5.556-.5,3.258v2.53l-.977.163a14.335,14.335,0,0,0-11.086,9.592c-.652,1.993-.7,2.405-.776,7.618-.067,4.2-.1,4.724-.268,5.462a14.129,14.129,0,0,1-4.312,7.359,4.034,4.034,0,0,0-1.456,2.4A3.582,3.582,0,0,0,44.6-469.3l.546.259,5.107.048,5.107.048.278.834a7.538,7.538,0,0,0,3.881,4.436,6.185,6.185,0,0,0,3.354.757,6.275,6.275,0,0,0,2-.211A7.666,7.666,0,0,0,70.2-468.29l.211-.69,5.088-.029,5.1-.029.642-.307a3.569,3.569,0,0,0,1.744-1.754,2.632,2.632,0,0,0,.3-1.485,2.475,2.475,0,0,0-.316-1.5,4.267,4.267,0,0,0-1.054-1.322,13.9,13.9,0,0,1-4.437-7.656c-.182-.834-.211-1.361-.278-5.615-.077-5.117-.105-5.395-.728-7.263a14.551,14.551,0,0,0-6.6-8.011,14.929,14.929,0,0,0-4.906-1.686l-.5-.067-.029-2.549c-.029-2.491-.038-2.568-.259-2.923A1.542,1.542,0,0,0,62.343-511.811Zm2.2,9.228a11.274,11.274,0,0,1,9.438,9.419,36.809,36.809,0,0,1,.144,4.561c0,1.993.048,4.034.105,4.551a16.318,16.318,0,0,0,1.619,5.625,16.767,16.767,0,0,0,3.747,5.04c.69.613.786.843.5,1.159-.144.163-.8.172-17.2.172-16.912,0-17.037,0-17.229-.192a.661.661,0,0,1-.192-.326,4.866,4.866,0,0,1,.872-.987,16.522,16.522,0,0,0,4.772-8.174c.431-1.773.489-2.472.489-6.4,0-4.7.125-5.74.9-7.656a12.224,12.224,0,0,1,3.5-4.571A11.268,11.268,0,0,1,64.547-502.584Zm2.568,33.854a4.639,4.639,0,0,1-5.174,2.7,4.907,4.907,0,0,1-2.233-1.207,4.471,4.471,0,0,1-1.1-1.639c0-.086.929-.115,4.312-.115H67.23Z" transform="translate(-18.823 0)"/>
    <path id="Path_1447" data-name="Path 1447" d="M29.291-487.86a8.574,8.574,0,0,0-1.006.929,24.54,24.54,0,0,0-6.64,16.107c-.019,1.332,0,1.466.182,1.725a1.518,1.518,0,0,0,2.558.01c.172-.22.211-.489.278-1.629a21.789,21.789,0,0,1,5.989-14.268c.738-.8.949-1.236.843-1.792A1.531,1.531,0,0,0,29.291-487.86Z" transform="translate(0 -21.575)"/>
    <path id="Path_1448" data-name="Path 1448" d="M387.821-487.736a1.8,1.8,0,0,0-.556.527,1.112,1.112,0,0,0-.2.929c.038.537.077.613.537,1.131a22.893,22.893,0,0,1,4.839,7.551,21.97,21.97,0,0,1,1.409,7.187c0,1.025.22,1.581.767,1.945a1.682,1.682,0,0,0,1.7-.057c.565-.4.642-.728.575-2.453a24.542,24.542,0,0,0-4.925-13.77,16.519,16.519,0,0,0-2.74-3A1.734,1.734,0,0,0,387.821-487.736Z" transform="translate(-330.397 -21.719)"/>
  </g>
</svg>
