<svg xmlns="http://www.w3.org/2000/svg" width="37.003" height="46.633" viewBox="0 0 37.003 46.633">
  <path id="bookmark" d="M35.019,0H1.522A1.2,1.2,0,0,0,.269,1.127V43.345A2.239,2.239,0,0,0,1.63,45.353a2.743,2.743,0,0,0,2.607-.175L18.271,36.13l14.035,9.048a2.743,2.743,0,0,0,2.606.173,2.24,2.24,0,0,0,1.362-2.006V1.127A1.2,1.2,0,0,0,35.019,0ZM33.765,43.345,19,33.826a1.369,1.369,0,0,0-1.46,0L2.777,43.345V2.254H33.765Zm0,0" transform="translate(0.231 0.5)" stroke="#000" stroke-width="1"/>
</svg>
