<svg xmlns="http://www.w3.org/2000/svg" width="55" height="55" viewBox="0 0 55 55">
  <g id="box" transform="translate(0 -0.002)">
    <g id="Group_3" data-name="Group 3" transform="translate(15.683 39.748)">
      <g id="Group_2" data-name="Group 2">
        <path id="Path_5" data-name="Path 5" d="M147.073,370a1.074,1.074,0,1,0,1.074,1.074A1.075,1.075,0,0,0,147.073,370Z" transform="translate(-145.999 -370.002)" fill="#fff"/>
      </g>
    </g>
    <g id="Group_5" data-name="Group 5" transform="translate(0 0.002)">
      <g id="Group_4" data-name="Group 4" transform="translate(0 0)">
        <path id="Path_6" data-name="Path 6" d="M48.355,20.412l6.33-6.33a1.074,1.074,0,0,0-.443-1.786L38.827,7.538a10.744,10.744,0,0,0-20.218-.809L.754,12.3a1.074,1.074,0,0,0-.44,1.785l6.5,6.5-4.1,6.829a1.074,1.074,0,0,0,.581,1.572l5.943,1.981V47.482a1.074,1.074,0,0,0,.7,1.006c3.634,1.363,17.135,6.426,17.208,6.452a1.07,1.07,0,0,0,.687.01l.009,0L47.175,48.5a1.074,1.074,0,0,0,.735-1.019V30.518l6.338-1.992a1.074,1.074,0,0,0,.438-1.784Zm-9.039-9.668c0-.273-.011-.545-.032-.817l12.621,3.9-5.36,5.36-8.758-2.919A10.773,10.773,0,0,0,39.316,10.744Zm-18.871-2.8a8.593,8.593,0,0,1,16.723,2.8,8.593,8.593,0,0,1-8.594,8.594,8.6,8.6,0,0,1-8.129-11.39ZM3.089,13.819,17.946,9.186a10.831,10.831,0,0,0-.114,1.558,10.677,10.677,0,0,0,1.191,4.916L8.454,19.183ZM5.245,27.365l3.4-5.661,17.248,5.749-3.4,5.661ZM26.425,52.378l-15.039-5.64V31.677c11.832,3.923,11.255,3.8,11.584,3.8a1.075,1.075,0,0,0,.921-.522l2.534-4.223ZM27.5,25.725,11.561,20.412l8.679-2.893a10.739,10.739,0,0,0,16.186.555l7.013,2.337ZM45.761,46.708,28.574,52.437V29.919l3.808,4.76a1.074,1.074,0,0,0,1.161.354l12.218-3.84ZM33.6,32.763l-4.3-5.374,17.245-5.748,5.367,5.367Z" transform="translate(0 -0.002)" fill="#fff"/>
      </g>
    </g>
    <g id="Group_7" data-name="Group 7" transform="translate(19.739 41.168)">
      <g id="Group_6" data-name="Group 6">
        <path id="Path_7" data-name="Path 7" d="M187.6,384.184l-2.389-.9a1.074,1.074,0,1,0-.754,2.012l2.389.9a1.074,1.074,0,1,0,.754-2.012Z" transform="translate(-183.757 -383.219)" fill="#fff"/>
      </g>
    </g>
    <g id="Group_9" data-name="Group 9" transform="translate(15.683 44.236)">
      <g id="Group_8" data-name="Group 8">
        <path id="Path_8" data-name="Path 8" d="M153.892,414.264l-6.445-2.417a1.074,1.074,0,0,0-.754,2.012l6.445,2.417a1.074,1.074,0,1,0,.754-2.012Z" transform="translate(-145.995 -411.779)" fill="#fff"/>
      </g>
    </g>
    <g id="Group_11" data-name="Group 11" transform="translate(24.277 6.447)">
      <g id="Group_10" data-name="Group 10">
        <path id="Path_9" data-name="Path 9" d="M236.426,60.316a1.074,1.074,0,0,0-1.519,0L229.221,66l-1.389-1.389a1.074,1.074,0,1,0-1.519,1.519l2.149,2.148a1.074,1.074,0,0,0,1.519,0l6.445-6.445A1.074,1.074,0,0,0,236.426,60.316Z" transform="translate(-225.998 -60.001)" fill="#fff"/>
      </g>
    </g>
  </g>
</svg>
