<svg xmlns="http://www.w3.org/2000/svg" width="65.336" height="60.11" viewBox="0 0 65.336 60.11">
  <g id="comment" transform="translate(-0.001 1.332)">
    <path id="Path_537" data-name="Path 537" d="M56.354-1.332H8.983A8.992,8.992,0,0,0,0,7.65V36.64a8.993,8.993,0,0,0,8.951,8.982V58.778L27.857,45.623h28.5a8.993,8.993,0,0,0,8.982-8.982V7.65a8.992,8.992,0,0,0-8.982-8.982ZM61.508,36.64a5.16,5.16,0,0,1-5.154,5.154h-29.7L12.78,51.451V41.795h-3.8A5.16,5.16,0,0,1,3.829,36.64V7.65A5.16,5.16,0,0,1,8.983,2.5H56.354A5.16,5.16,0,0,1,61.508,7.65Zm0,0" fill="#fff"/>
    <path id="Path_538" data-name="Path 538" d="M171.293,131.172h30.362V135H171.293Zm0,0" transform="translate(-153.806 -118.977)" fill="#fff"/>
    <path id="Path_539" data-name="Path 539" d="M171.293,211.172h30.362V215H171.293Zm0,0" transform="translate(-153.806 -190.81)" fill="#fff"/>
    <path id="Path_540" data-name="Path 540" d="M171.293,291.172h30.362V295H171.293Zm0,0" transform="translate(-153.806 -262.643)" fill="#fff"/>
  </g>
</svg>
