<svg xmlns="http://www.w3.org/2000/svg" width="53.247" height="53.247" viewBox="0 0 53.247 53.247">
  <g id="credit-card-payment" transform="translate(0 0)">
    <path id="Path_162" data-name="Path 162" d="M51.878,17.3,35.948,1.369a4.686,4.686,0,0,0-6.619,0L9.34,21.358H4.68A4.685,4.685,0,0,0,0,26.038V48.567a4.685,4.685,0,0,0,4.68,4.68H40.522a4.685,4.685,0,0,0,4.68-4.68V30.594l6.677-6.677a4.685,4.685,0,0,0,0-6.619ZM31.536,3.575a1.562,1.562,0,0,1,2.206,0l8.208,8.208-9.575,9.575H13.752ZM42.082,48.567a1.562,1.562,0,0,1-1.56,1.56H4.68a1.562,1.562,0,0,1-1.56-1.56V26.038a1.562,1.562,0,0,1,1.56-1.56H40.522a1.562,1.562,0,0,1,1.56,1.56ZM41.156,21.4a4.7,4.7,0,0,0-.635-.044H36.788l7.369-7.369L46.363,16.2Zm8.516.309L45.2,26.182v-.144a4.66,4.66,0,0,0-1.174-3.1L48.569,18.4l1.1,1.1a1.562,1.562,0,0,1,0,2.206Z" fill="#4f4f4f"/>
    <path id="Path_163" data-name="Path 163" d="M60,406.574h5.805v3.12H60Z" transform="translate(-53.76 -364.289)" fill="#4f4f4f"/>
    <path id="Path_164" data-name="Path 164" d="M146.267,406.574h5.805v3.12h-5.805Z" transform="translate(-131.055 -364.289)" fill="#4f4f4f"/>
    <path id="Path_165" data-name="Path 165" d="M232.534,406.574h5.805v3.12h-5.805Z" transform="translate(-208.35 -364.289)" fill="#4f4f4f"/>
    <path id="Path_166" data-name="Path 166" d="M318.8,406.574h5.805v3.12H318.8Z" transform="translate(-285.645 -364.289)" fill="#4f4f4f"/>
    <path id="Path_167" data-name="Path 167" d="M70.532,280.766H60v9.36H70.532Zm-3.12,6.24H63.12v-3.12h4.292Z" transform="translate(-53.76 -251.565)" fill="#4f4f4f"/>
  </g>
</svg>
