<svg xmlns="http://www.w3.org/2000/svg" width="83.587" height="62.69" viewBox="0 0 83.587 62.69">
  <g id="envelope" transform="translate(0 -64)">
    <g id="Group_326" data-name="Group 326" transform="translate(0 64)">
      <path id="Path_1435" data-name="Path 1435" d="M76.621,64H6.966A6.972,6.972,0,0,0,0,70.966v48.759a6.972,6.972,0,0,0,6.966,6.965H76.621a6.972,6.972,0,0,0,6.965-6.966V70.966A6.972,6.972,0,0,0,76.621,64ZM6.966,67.483H76.621a3.314,3.314,0,0,1,.724.146c-6.03,5.519-26.027,23.812-33.024,30.117a3.493,3.493,0,0,1-5.056,0c-7-6.3-26.994-24.6-33.024-30.115A3.328,3.328,0,0,1,6.966,67.483ZM3.483,119.725V70.966A3.364,3.364,0,0,1,3.678,70c4.616,4.224,18.568,16.988,27.615,25.215C22.275,102.964,8.319,116.2,3.667,120.632A3.356,3.356,0,0,1,3.483,119.725Zm73.139,3.483H6.966a3.331,3.331,0,0,1-.785-.159c4.807-4.583,18.852-17.891,27.711-25.469,1.155,1.048,2.21,2,3.041,2.752a6.956,6.956,0,0,0,9.719,0c.832-.75,1.888-1.706,3.043-2.754,8.86,7.578,22.9,20.885,27.711,25.469A3.328,3.328,0,0,1,76.621,123.207Zm3.483-3.483a3.363,3.363,0,0,1-.184.908c-4.654-4.439-18.609-17.669-27.626-25.414,9.047-8.227,23-20.99,27.615-25.216a3.365,3.365,0,0,1,.195.963Z" transform="translate(0 -64)" fill="#a6a6a6"/>
    </g>
  </g>
</svg>
