<svg id="favorite_2_" data-name="favorite (2)" xmlns="http://www.w3.org/2000/svg" width="55" height="55" viewBox="0 0 55 55">
  <path id="Path_11" data-name="Path 11" d="M46.945,8.054A27.5,27.5,0,0,0,8.054,46.946,27.5,27.5,0,0,0,46.945,8.054ZM27.5,51.777A24.277,24.277,0,1,1,51.777,27.5,24.3,24.3,0,0,1,27.5,51.777Z" fill="#fff"/>
  <path id="Path_12" data-name="Path 12" d="M126.371,94.267a1.611,1.611,0,0,0-1.3-1.1l-10.3-1.5-4.6-9.329a1.611,1.611,0,0,0-2.89,0l-4.6,9.329-10.3,1.5a1.611,1.611,0,0,0-.893,2.748l7.45,7.262-1.759,10.254a1.611,1.611,0,0,0,2.338,1.7l9.209-4.841,9.209,4.841a1.611,1.611,0,0,0,2.338-1.7l-1.759-10.254,7.45-7.262A1.611,1.611,0,0,0,126.371,94.267Zm-10.714,7.2a1.612,1.612,0,0,0-.463,1.426l1.35,7.871-7.069-3.716a1.611,1.611,0,0,0-1.5,0l-7.069,3.716,1.35-7.871a1.612,1.612,0,0,0-.463-1.426l-5.719-5.574,7.9-1.148a1.612,1.612,0,0,0,1.213-.881l3.534-7.161,3.534,7.161a1.612,1.612,0,0,0,1.213.882l7.9,1.148Z" transform="translate(-81.226 -72.698)" fill="#fff"/>
</svg>
