<svg xmlns="http://www.w3.org/2000/svg" width="60.086" height="60.094" viewBox="0 0 60.086 60.094">
  <g transform="translate(-509.957 -2214.453)">
    <path id="home_7_" data-name="home (7)" d="M58,25.7l0,0L33.891,1.593a5.44,5.44,0,0,0-7.694,0L2.1,25.686l-.024.025A5.438,5.438,0,0,0,5.7,34.979c.056.005.112.008.168.008h.96V52.726A6.374,6.374,0,0,0,13.2,59.093h9.431a1.731,1.731,0,0,0,1.731-1.731V43.454a2.908,2.908,0,0,1,2.905-2.9h5.563a2.908,2.908,0,0,1,2.9,2.9V57.362a1.731,1.731,0,0,0,1.731,1.731h9.431a6.374,6.374,0,0,0,6.367-6.367V34.987h.891A5.441,5.441,0,0,0,58,25.7Zm-2.452,5.243a1.966,1.966,0,0,1-1.4.58H51.529A1.731,1.731,0,0,0,49.8,33.256v19.47a2.908,2.908,0,0,1-2.9,2.9h-7.7V43.454a6.375,6.375,0,0,0-6.367-6.367H27.263a6.375,6.375,0,0,0-6.368,6.367V55.631H13.2a2.908,2.908,0,0,1-2.9-2.9V33.256a1.731,1.731,0,0,0-1.731-1.731H5.982l-.081,0a1.975,1.975,0,0,1-1.362-3.374h0l24.1-24.1a1.977,1.977,0,0,1,2.8,0l24.1,24.1.011.011a1.982,1.982,0,0,1,0,2.794Zm0,0" transform="translate(509.956 2214.954)" fill="#a6a6a6"/>
    <path id="home_7_-_Outline" data-name="home (7) - Outline" d="M46.893,59.593H37.462a2.234,2.234,0,0,1-2.231-2.231V43.454a2.408,2.408,0,0,0-2.4-2.4H27.263a2.408,2.408,0,0,0-2.405,2.4V57.362a2.234,2.234,0,0,1-2.231,2.231H13.2a6.875,6.875,0,0,1-6.867-6.867V35.487h-.46c-.067,0-.135,0-.2-.009A5.938,5.938,0,0,1,1.721,25.362l.028-.028L25.844,1.24a5.94,5.94,0,0,1,8.4,0L58.359,25.354a5.941,5.941,0,0,1-4.208,10.134H53.76V52.726A6.875,6.875,0,0,1,46.893,59.593ZM27.263,40.049h5.563a3.409,3.409,0,0,1,3.4,3.4V57.362a1.233,1.233,0,0,0,1.231,1.231h9.431a5.874,5.874,0,0,0,5.867-5.867V34.487h1.391a4.941,4.941,0,0,0,3.527-8.4l-.009-.006-.033-.036-24.1-24.1a4.94,4.94,0,0,0-6.987,0L2.458,26.039l-.014.014-.009.009A4.938,4.938,0,0,0,5.721,34.48l.027,0c.04,0,.08.006.12.006h1.46V52.726A5.874,5.874,0,0,0,13.2,58.593h9.431a1.233,1.233,0,0,0,1.231-1.231V43.454A3.409,3.409,0,0,1,27.263,40.049Zm19.63,16.082h-8.2V43.454a5.874,5.874,0,0,0-5.867-5.867H27.263a5.874,5.874,0,0,0-5.868,5.867V56.131H13.2a3.408,3.408,0,0,1-3.4-3.4V33.256a1.233,1.233,0,0,0-1.231-1.231H5.949l-.056,0a2.475,2.475,0,0,1-1.75-4.184v0l.034-.034.007-.007.147-.147L28.293,3.688a2.477,2.477,0,0,1,3.5,0l24.1,24.1.015.015a2.479,2.479,0,0,1-1.756,4.227H51.529A1.233,1.233,0,0,0,50.3,33.256v19.47A3.408,3.408,0,0,1,46.892,56.131Zm-7.2-1h7.2a2.407,2.407,0,0,0,2.4-2.4V33.256a2.234,2.234,0,0,1,2.231-2.231h2.622A1.479,1.479,0,0,0,55.2,28.507l-.013-.013-24.1-24.1a1.477,1.477,0,0,0-2.089,0L4.934,28.459l-.116.188H4.764A1.475,1.475,0,0,0,5.91,31.021l.088,0H8.559a2.234,2.234,0,0,1,2.231,2.231v19.47a2.407,2.407,0,0,0,2.4,2.4h7.2V43.454a6.875,6.875,0,0,1,6.868-6.867h5.563a6.875,6.875,0,0,1,6.867,6.867Z" transform="translate(509.956 2214.954)" fill="#a6a6a6"/>
  </g>
</svg>
