<svg xmlns="http://www.w3.org/2000/svg" width="60.088" height="60.094" viewBox="0 0 60.088 60.094">
  <path id="home_7_" data-name="home (7)" d="M58,25.7l0,0L33.891,1.593a5.44,5.44,0,0,0-7.694,0L2.1,25.686l-.024.025A5.438,5.438,0,0,0,5.7,34.979c.056.005.112.008.168.008h.96V52.726A6.374,6.374,0,0,0,13.2,59.093h9.431a1.731,1.731,0,0,0,1.731-1.731V43.454a2.908,2.908,0,0,1,2.905-2.9h5.563a2.908,2.908,0,0,1,2.9,2.9V57.362a1.731,1.731,0,0,0,1.731,1.731h9.431a6.374,6.374,0,0,0,6.367-6.367V34.987h.891A5.441,5.441,0,0,0,58,25.7Zm-2.452,5.243a1.966,1.966,0,0,1-1.4.58H51.529A1.731,1.731,0,0,0,49.8,33.256v19.47a2.908,2.908,0,0,1-2.9,2.9h-7.7V43.454a6.375,6.375,0,0,0-6.367-6.367H27.263a6.375,6.375,0,0,0-6.368,6.367V55.631H13.2a2.908,2.908,0,0,1-2.9-2.9V33.256a1.731,1.731,0,0,0-1.731-1.731H5.982l-.081,0a1.975,1.975,0,0,1-1.362-3.374h0l24.1-24.1a1.977,1.977,0,0,1,2.8,0l24.1,24.1.011.011a1.982,1.982,0,0,1,0,2.794Zm0,0" transform="translate(0 0.501)" fill="#a6a6a6" stroke="#a6a6a6" stroke-width="1"/>
</svg>
