<svg xmlns="http://www.w3.org/2000/svg" width="48.451" height="48.451" viewBox="0 0 48.451 48.451">
  <path id="law_1_" data-name="law (1)" d="M63.151,41.574h-2.7l-3.6-7.193h1.1a3.6,3.6,0,0,0,0-7.193H52.363l-.479-.639a6.424,6.424,0,0,0-5.115-2.557h-2.8a2.4,2.4,0,0,0-1.6-2.26V18.4a2.4,2.4,0,0,0-4.8,0v3.334a2.4,2.4,0,0,0-1.6,2.26h-2.8a6.424,6.424,0,0,0-5.115,2.557l-.479.639H21.994a3.6,3.6,0,0,0,0,7.193h1.1l-3.6,7.193H16.8a.8.8,0,0,0-.8.8v1.6a6.4,6.4,0,0,0,6.393,6.393h6.393a6.4,6.4,0,0,0,6.393-6.393v-1.6a.8.8,0,0,0-.8-.8h-2.7l-4.8-9.59h2.7a.8.8,0,0,0,.639-.32l1.439-1.918a2.409,2.409,0,0,1,1.918-.959h2.4a.8.8,0,0,0,.8.8h.8V52.52l-1.227,1.841a3.974,3.974,0,0,0-3.568,2.209l-.494.988h-2.7a5.6,5.6,0,0,0-5.594,5.594.8.8,0,0,0,.8.8H55.16a.8.8,0,0,0,.8-.8,5.6,5.6,0,0,0-5.594-5.594h-2.7l-.494-.988A3.974,3.974,0,0,0,43.6,54.361L42.373,52.52V29.586h.8a.8.8,0,0,0,.8-.8h2.4a2.409,2.409,0,0,1,1.918.959l1.439,1.918a.8.8,0,0,0,.639.32h2.7l-4.8,9.59h-2.7a.8.8,0,0,0-.8.8v1.6a6.4,6.4,0,0,0,6.393,6.393h6.393a6.4,6.4,0,0,0,6.393-6.393v-1.6a.8.8,0,0,0-.8-.8ZM39.975,17.6a.8.8,0,0,1,.8.8v3.2h-1.6V18.4a.8.8,0,0,1,.8-.8ZM33.582,43.971a4.8,4.8,0,0,1-4.8,4.8H22.393a4.8,4.8,0,0,1-4.8-4.8v-.8H33.582Zm-12.293-2.4,4.3-8.6,4.3,8.6ZM33.582,27.188a4.015,4.015,0,0,0-3.2,1.6l-1.2,1.6H21.594v1.6h2.7l-.4.8h-1.9a2,2,0,1,1,0-4h5.994a.8.8,0,0,0,.639-.32l.719-.959a4.818,4.818,0,0,1,3.836-1.918h2.8v1.6Zm20.7,35.164H25.67a4,4,0,0,1,3.916-3.2H50.365a4,4,0,0,1,3.916,3.2Zm-8.542-5.068.137.273h-11.8l.137-.273a2.384,2.384,0,0,1,2.144-1.325h7.237a2.385,2.385,0,0,1,2.144,1.325Zm-4.83-4.079.77,1.155H38.272l.77-1.155a.8.8,0,0,0,.134-.443V29.586h1.6V52.762a.8.8,0,0,0,.134.443Zm1.464-25.218h-4.8v-4a.8.8,0,0,1,.8-.8h3.2a.8.8,0,0,1,.8.8Zm7.193.8a4.015,4.015,0,0,0-3.2-1.6h-2.4v-1.6h2.8A4.818,4.818,0,0,1,50.6,27.508l.719.959a.8.8,0,0,0,.639.32h5.994a2,2,0,0,1,0,4h-1.9l-.4-.8h2.7v-1.6H50.764Zm4.8,4.185,4.3,8.6h-8.6Zm7.992,11a4.8,4.8,0,0,1-4.8,4.8H51.164a4.8,4.8,0,0,1-4.8-4.8v-.8H62.352Z" transform="translate(-15.75 -15.75)" stroke="#000" stroke-width="0.5"/>
</svg>
