<svg xmlns="http://www.w3.org/2000/svg" width="44.871" height="43.019" viewBox="0 0 44.871 43.019">
  <g id="logout" transform="translate(0 -0.85)">
    <g id="Group_298" data-name="Group 298" transform="translate(0 0.85)">
      <g id="Group_297" data-name="Group 297" transform="translate(0 0)">
        <path id="Path_1376" data-name="Path 1376" d="M21.509,40.284H5.377a1.793,1.793,0,0,1-1.792-1.792V6.227A1.793,1.793,0,0,1,5.377,4.435H21.509a1.792,1.792,0,0,0,0-3.585H5.377A5.384,5.384,0,0,0,0,6.227V38.492a5.384,5.384,0,0,0,5.377,5.377H21.509a1.792,1.792,0,0,0,0-3.585Z" transform="translate(0 -0.85)"/>
      </g>
    </g>
    <g id="Group_300" data-name="Group 300" transform="translate(16.048 9.812)">
      <g id="Group_299" data-name="Group 299" transform="translate(0 0)">
        <path id="Path_1377" data-name="Path 1377" d="M198.388,118.435l-10.9-10.755a1.792,1.792,0,1,0-2.517,2.552l7.788,7.686h-20.87a1.792,1.792,0,0,0,0,3.585h20.87l-7.788,7.686a1.792,1.792,0,1,0,2.517,2.552l10.9-10.755a1.792,1.792,0,0,0,0-2.552Z" transform="translate(-170.1 -107.165)"/>
      </g>
    </g>
  </g>
</svg>
