<svg xmlns="http://www.w3.org/2000/svg" width="75.04" height="72.478" viewBox="0 0 75.04 72.478">
  <path id="marketing" d="M59.83,33.134a7.653,7.653,0,0,0-7.553-13.081L47.5,11.776a5.162,5.162,0,0,0-8.837-.173,75.933,75.933,0,0,1-23,23.266,1.234,1.234,0,0,0-.412,1.624c.05.092,7.965,13.8,8.017,13.89A1.233,1.233,0,1,0,25.4,49.149L17.978,36.294a78.361,78.361,0,0,0,22.77-23.376,2.7,2.7,0,0,1,4.615.091L62.472,42.644a2.7,2.7,0,0,1-2.228,4.042,78.4,78.4,0,0,0-32.678,8.556c-.043.022-11.582,6.685-12.377,7.144A4.324,4.324,0,0,1,9.29,60.8L3.044,49.986a4.324,4.324,0,0,1,1.581-5.9l7.517-4.34a1.233,1.233,0,1,0-1.233-2.136L3.392,41.95A6.793,6.793,0,0,0,.908,51.219L7.154,62.038a6.793,6.793,0,0,0,9.269,2.484l.284-.164,7.712,13.357A4.007,4.007,0,0,0,29.9,79.182l2.7-1.562a4.007,4.007,0,0,0,1.467-5.477L28.6,62.677a1.233,1.233,0,1,0-2.136,1.233l5.466,9.466a1.542,1.542,0,0,1-.565,2.108l-2.7,1.562a1.542,1.542,0,0,1-2.108-.565L18.844,63.124l9.874-5.7A75.93,75.93,0,0,1,60.34,49.15a5.161,5.161,0,0,0,4.268-7.74Zm-.352-8.517a5.2,5.2,0,0,1-.905,6.339l-5.038-8.727A5.185,5.185,0,0,1,59.478,24.616Zm12.061-5.482-3.191,1.842a1.233,1.233,0,1,1-1.233-2.136L70.306,17a1.233,1.233,0,0,1,1.233,2.136ZM57.817,12.106,58.6,9.2a1.233,1.233,0,1,1,2.382.638l-.778,2.9a1.233,1.233,0,1,1-2.382-.638ZM73.945,32.3a1.234,1.234,0,0,1-1.19.914,20.234,20.234,0,0,1-3.223-.82,1.233,1.233,0,0,1,.638-2.382l2.9.778A1.233,1.233,0,0,1,73.945,32.3Z" transform="translate(0.517 -7.753)" fill="#c62828" stroke="#c62828" stroke-width="1"/>
</svg>
