<svg xmlns="http://www.w3.org/2000/svg" width="66.798" height="77.729" viewBox="0 0 66.798 77.729">
  <g id="package" transform="translate(-36)">
    <path id="Path_158" data-name="Path 158" d="M85.109,44.554a4.554,4.554,0,1,0-4.554,4.554A4.56,4.56,0,0,0,85.109,44.554Zm-6.073,0a1.518,1.518,0,1,1,1.518,1.518A1.52,1.52,0,0,1,79.036,44.554Z" transform="translate(-33.927 -33.927)" fill="#4f4f4f"/>
    <path id="Path_159" data-name="Path 159" d="M45.57,26.9a1.518,1.518,0,0,0,2.114,0c.391-.379,9.57-9.363,9.57-16.547a10.631,10.631,0,0,0-21.254,0C36,17.536,45.179,26.519,45.57,26.9ZM46.627,3.036a7.465,7.465,0,0,1,7.591,7.315c0,4.288-4.785,10.291-7.591,13.286-2.806-3-7.591-9-7.591-13.286A7.465,7.465,0,0,1,46.627,3.036Z" transform="translate(0)" fill="#4f4f4f"/>
    <path id="Path_160" data-name="Path 160" d="M96,122.7v24.29a1.519,1.519,0,0,0,.636,1.235l21.01,15.007a1.947,1.947,0,0,0,1.084.376c.035,0,.072,0,.109,0h.011a1.932,1.932,0,0,0,1.043-.371l7.123-5.088A13.664,13.664,0,1,0,141.543,140.4V122.7a1.374,1.374,0,0,0-.636-1.235l-21.254-15.181a1.519,1.519,0,0,0-1.765,0L96.635,121.465A1.665,1.665,0,0,0,96,122.7Zm22.772,13.316-4.675-3.339,18.642-13.316,4.675,3.339Zm11.355-18.521-18.642,13.316-4.068-2.906,18.642-13.316Zm-23.5,13.577,3.041,2.172c0,.028,0,.055,0,.083v9.109l-3.036-2.277Zm12.145-21.688,4.675,3.339L104.8,126.039l-4.675-3.339ZM99.035,125.65l4.554,3.253v12.015a1.518,1.518,0,0,0,.607,1.215l6.073,4.554a1.518,1.518,0,0,0,2.429-1.215V135.41l4.554,3.253v20.559L99.035,146.209Zm21.254,33.572V138.663l18.218-13.013V140.4a13.682,13.682,0,0,0-12.145,13.578c0,.3.011.595.03.889Zm19.736,5.379a10.627,10.627,0,1,1,10.627-10.627A10.639,10.639,0,0,1,140.025,164.6Z" transform="translate(-50.89 -89.908)" fill="#4f4f4f"/>
    <path id="Path_161" data-name="Path 161" d="M350.736,387.445a1.519,1.519,0,0,0-2.147,0l-6.517,6.517-3.481-3.481a1.518,1.518,0,1,0-2.147,2.147L341,397.183a1.518,1.518,0,0,0,2.147,0l7.591-7.591A1.518,1.518,0,0,0,350.736,387.445Z" transform="translate(-254.455 -328.249)" fill="#4f4f4f"/>
  </g>
</svg>
