<svg xmlns="http://www.w3.org/2000/svg" width="35.4" height="35.393" viewBox="0 0 35.4 35.393">
  <g id="pencil_2_" data-name="pencil (2)" transform="translate(0 511.818)">
    <path id="Path_1470" data-name="Path 1470" d="M351.309-511.72c-.94.2-1.2.394-2.925,2.1l-1.584,1.57,3.831,3.817,3.824,3.817,1.494-1.494c1.6-1.6,1.888-1.978,2.144-2.814a3.042,3.042,0,0,0,.118-1.245c-.055-1.425-.29-1.826-2.227-3.748-1.528-1.521-1.812-1.722-2.78-1.971A4.076,4.076,0,0,0,351.309-511.72Z" transform="translate(-322.818)" fill="#a6a6a6"/>
    <path id="Path_1471" data-name="Path 1471" d="M12.012-416.194,2.2-406.382,1.1-402c-.636,2.559-1.1,4.523-1.1,4.716a.667.667,0,0,0,.74.74c.194,0,2.158-.463,4.716-1.1l4.384-1.1,9.813-9.813c5.394-5.394,9.806-9.833,9.806-9.875,0-.09-7.482-7.572-7.572-7.572C21.845-426,17.405-421.588,12.012-416.194Z" transform="translate(0 -79.884)" fill="#a6a6a6"/>
  </g>
</svg>
