<svg xmlns="http://www.w3.org/2000/svg" width="60.009" height="60.097" viewBox="0 0 60.009 60.097">
  <g id="phone-call_6_" data-name="phone-call (6)" transform="translate(0.497 0.503)">
    <g id="Group_20" data-name="Group 20" transform="translate(0 0)">
      <path id="Path_20" data-name="Path 20" d="M47,60.595a5.812,5.812,0,0,0-4.216-1.933,6.01,6.01,0,0,0-4.266,1.921l-3.941,3.929c-.324-.175-.649-.337-.96-.5-.449-.224-.873-.437-1.235-.661A42.836,42.836,0,0,1,22.122,54a25.271,25.271,0,0,1-3.367-5.313c1.023-.935,1.971-1.908,2.894-2.844.349-.349.7-.711,1.048-1.06a5.722,5.722,0,0,0,0-8.631l-3.4-3.4c-.387-.387-.786-.786-1.16-1.185-.748-.773-1.534-1.571-2.345-2.32a5.9,5.9,0,0,0-4.178-1.833,6.109,6.109,0,0,0-4.241,1.833l-.025.025L3.1,33.542A9.125,9.125,0,0,0,.4,39.342a21.864,21.864,0,0,0,1.6,9.254,53.7,53.7,0,0,0,9.541,15.915,58.693,58.693,0,0,0,19.544,15.3,30.451,30.451,0,0,0,10.976,3.243c.262.012.536.025.786.025a9.4,9.4,0,0,0,7.2-3.093c.012-.025.037-.037.05-.062a28.351,28.351,0,0,1,2.183-2.257c.536-.511,1.085-1.048,1.621-1.609a6.222,6.222,0,0,0,1.883-4.315,5.994,5.994,0,0,0-1.921-4.278ZM51.47,73.728c-.012,0-.012.012,0,0-.486.524-.985,1-1.522,1.522a32.794,32.794,0,0,0-2.407,2.494,6.013,6.013,0,0,1-4.69,1.983c-.187,0-.387,0-.574-.012A27.051,27.051,0,0,1,32.549,76.8,55.4,55.4,0,0,1,14.14,62.378,50.635,50.635,0,0,1,5.16,47.424a17.808,17.808,0,0,1-1.4-7.808,5.725,5.725,0,0,1,1.721-3.7l4.253-4.253a2.835,2.835,0,0,1,1.9-.886,2.668,2.668,0,0,1,1.821.873l.037.037c.761.711,1.484,1.447,2.245,2.233.387.4.786.8,1.185,1.21l3.4,3.4c1.322,1.322,1.322,2.544,0,3.866-.362.362-.711.723-1.073,1.073-1.048,1.073-2.045,2.07-3.131,3.043-.025.025-.05.037-.062.062a2.544,2.544,0,0,0-.649,2.831l.037.112a27.336,27.336,0,0,0,4.029,6.573l.012.012A45.777,45.777,0,0,0,30.566,66.182a17.028,17.028,0,0,0,1.534.836c.449.224.873.437,1.235.661.05.025.1.062.15.087a2.7,2.7,0,0,0,1.235.312,2.667,2.667,0,0,0,1.9-.861l4.266-4.265a2.822,2.822,0,0,1,1.883-.935,2.54,2.54,0,0,1,1.8.91l.025.025,6.872,6.872A2.466,2.466,0,0,1,51.47,73.728Z" transform="translate(-0.344 -23.988)" fill="#a6a6a6" stroke="#a6a6a6" stroke-width="1"/>
      <path id="Path_21" data-name="Path 21" d="M246.33,89.265A16.052,16.052,0,0,1,259.4,102.336a1.673,1.673,0,0,0,1.659,1.4,2.229,2.229,0,0,0,.287-.025,1.685,1.685,0,0,0,1.384-1.946,19.409,19.409,0,0,0-15.815-15.815,1.693,1.693,0,0,0-1.946,1.372A1.666,1.666,0,0,0,246.33,89.265Z" transform="translate(-214.437 -75.209)" fill="#a6a6a6" stroke="#a6a6a6" stroke-width="1"/>
      <path id="Path_22" data-name="Path 22" d="M276.773,26.068A31.96,31.96,0,0,0,250.731.026a1.681,1.681,0,1,0-.549,3.318,28.546,28.546,0,0,1,23.273,23.273,1.673,1.673,0,0,0,1.659,1.4,2.227,2.227,0,0,0,.287-.025A1.652,1.652,0,0,0,276.773,26.068Z" transform="translate(-217.791 0)" fill="#a6a6a6" stroke="#a6a6a6" stroke-width="1"/>
    </g>
  </g>
</svg>
