<svg xmlns="http://www.w3.org/2000/svg" width="66.944" height="131.888" viewBox="0 0 66.944 131.888">
  <g id="pin-_1_" transform="translate(-126.168 511.708)">
    <path id="Path_1426" data-name="Path 1426" d="M156.3-511.629a34.241,34.241,0,0,0-25.582,16.479,32.33,32.33,0,0,0-4.513,15.731,30.965,30.965,0,0,0,1.341,10.831,34.294,34.294,0,0,0,18.619,21.018c2.5,1.109,7.762,2.579,9.207,2.579a7.413,7.413,0,0,1,1.393.155l.567.155v31.307c0,34.247-.052,32.8,1.47,33.4a2.074,2.074,0,0,0,2.708-1.057c.438-.851.464-2.914.464-32.262v-31.385l.593-.155a6.893,6.893,0,0,1,1.367-.155c1.444,0,6.705-1.47,9.207-2.579a32.925,32.925,0,0,0,9.619-6.525,32.869,32.869,0,0,0,10.058-19.264,39.767,39.767,0,0,0-.284-11.6,33.772,33.772,0,0,0-26.562-26.175A49.442,49.442,0,0,0,156.3-511.629Zm-4.126,16.376a9.637,9.637,0,0,1,4.358,4.358,6.939,6.939,0,0,1,.671,3.739,6.939,6.939,0,0,1-.671,3.739,9.015,9.015,0,0,1-7.324,5.106,8.9,8.9,0,0,1-8.3-13.539,10.887,10.887,0,0,1,4.41-3.688A9.847,9.847,0,0,1,152.171-495.253Z" transform="translate(0 0)" fill="#1de9b6"/>
  </g>
</svg>
