<svg xmlns="http://www.w3.org/2000/svg" width="61.29" height="61.281" viewBox="0 0 61.29 61.281">
  <g id="play-button" transform="translate(0 -0.002)">
    <path id="Path_30" data-name="Path 30" d="M27.711,19.3,14.984,10.052a1.535,1.535,0,0,0-2.437,1.238v18.5a1.53,1.53,0,0,0,.838,1.369,1.546,1.546,0,0,0,.7.165,1.525,1.525,0,0,0,.9-.3l12.727-9.243a1.522,1.522,0,0,0,0-2.476Z" transform="translate(13.043 10.141)" fill="#a6a6a6"/>
    <path id="Path_31" data-name="Path 31" d="M30.646,0A30.641,30.641,0,1,0,61.29,30.648,30.642,30.642,0,0,0,30.646,0Zm0,56.168A25.527,25.527,0,1,1,56.168,30.648,25.523,25.523,0,0,1,30.646,56.17Z" transform="translate(0 0)" fill="#a6a6a6"/>
  </g>
</svg>
