<svg xmlns="http://www.w3.org/2000/svg" width="43.554" height="47.505" viewBox="0 0 43.554 47.505">
  <g id="share_2_" data-name="share (2)" transform="translate(0.05 0.05)">
    <path id="Path_44" data-name="Path 44" d="M316.739,14.814a7.407,7.407,0,1,1,7.407-7.407A7.416,7.416,0,0,1,316.739,14.814Zm0-11.851a4.444,4.444,0,1,0,4.444,4.444A4.45,4.45,0,0,0,316.739,2.963Zm0,0" transform="translate(-280.692)" fill="#fff" stroke="#fff" stroke-width="0.1"/>
    <path id="Path_45" data-name="Path 45" d="M316.739,366.814a7.407,7.407,0,1,1,7.407-7.407A7.416,7.416,0,0,1,316.739,366.814Zm0-11.851a4.444,4.444,0,1,0,4.444,4.444A4.45,4.45,0,0,0,316.739,354.963Zm0,0" transform="translate(-280.692 -319.409)" fill="#fff" stroke="#fff" stroke-width="0.1"/>
    <path id="Path_46" data-name="Path 46" d="M7.407,190.814a7.407,7.407,0,1,1,7.407-7.407A7.416,7.416,0,0,1,7.407,190.814Zm0-11.851a4.444,4.444,0,1,0,4.444,4.444A4.45,4.45,0,0,0,7.407,178.963Zm0,0" transform="translate(0 -159.705)" fill="#fff" stroke="#fff" stroke-width="0.1"/>
    <path id="Path_47" data-name="Path 47" d="M121.172,108.972a1.481,1.481,0,0,1-.735-2.767l18.328-10.449a1.481,1.481,0,0,1,1.465,2.574L121.9,108.779a1.484,1.484,0,0,1-.731.193Zm0,0" transform="translate(-108.607 -86.712)" fill="#fff" stroke="#fff" stroke-width="0.1"/>
    <path id="Path_48" data-name="Path 48" d="M139.518,284.962a1.468,1.468,0,0,1-.731-.2l-18.328-10.449a1.481,1.481,0,0,1,1.466-2.574l18.328,10.449a1.482,1.482,0,0,1-.735,2.769Zm0,0" transform="translate(-108.627 -246.406)" fill="#fff" stroke="#fff" stroke-width="0.1"/>
  </g>
</svg>
