<svg xmlns="http://www.w3.org/2000/svg" width="47.865" height="60.094" viewBox="0 0 47.865 60.094">
  <g id="shopping-bag_3_" data-name="shopping-bag (3)" transform="translate(-52.515 0.5)">
    <g id="Group_13" data-name="Group 13" transform="translate(53.02)">
      <g id="Group_12" data-name="Group 12" transform="translate(0)">
        <path id="Path_13" data-name="Path 13" d="M99.847,48.732,97.208,15.478a4.156,4.156,0,0,0-4.125-3.821H87.871v-.234a11.423,11.423,0,1,0-22.846,0v.234H59.812a4.155,4.155,0,0,0-4.125,3.816l-2.64,33.263a9.622,9.622,0,0,0,9.594,10.358H90.254a9.622,9.622,0,0,0,9.594-10.362ZM68.486,11.423a7.961,7.961,0,1,1,15.923,0v.234H68.486ZM94.773,53.658a6.1,6.1,0,0,1-4.52,1.974H62.642A6.16,6.16,0,0,1,56.5,49.005l2.64-33.263a.679.679,0,0,1,.674-.624h5.213v4.263a1.731,1.731,0,1,0,3.461,0V15.119H84.409v4.263a1.731,1.731,0,1,0,3.461,0V15.119h5.213a.68.68,0,0,1,.674.629L96.4,49A6.1,6.1,0,0,1,94.773,53.658Z" transform="translate(-53.02)" fill="#a6a6a6" stroke="#a6a6a6" stroke-width="1"/>
      </g>
    </g>
    <g id="Group_15" data-name="Group 15" transform="translate(68.144 28.842)">
      <g id="Group_14" data-name="Group 14">
        <path id="Path_14" data-name="Path 14" d="M200.153,250.4a1.73,1.73,0,0,0-2.447,0l-7.728,7.728-2.972-2.972a1.731,1.731,0,0,0-2.448,2.448l4.2,4.2a1.73,1.73,0,0,0,2.447,0l8.952-8.952A1.731,1.731,0,0,0,200.153,250.4Z" transform="translate(-184.052 -249.893)" fill="#a6a6a6" stroke="#a6a6a6" stroke-width="1"/>
      </g>
    </g>
  </g>
</svg>
