<svg xmlns="http://www.w3.org/2000/svg" width="45.357" height="45.458" viewBox="0 0 45.357 45.458">
  <g id="store-_5_" transform="translate(-0.6 511.95)">
    <path id="Path_1473" data-name="Path 1473" d="M6.105-511.857A3.872,3.872,0,0,0,3.7-509.886c-.115.258-.861,3.019-1.652,6.145L.609-498.058.6-496.771a6.538,6.538,0,0,0,.2,2.042,13.245,13.245,0,0,0,1.51,3.259l.453.71v10.442c0,7.4.027,10.575.1,10.913a3.953,3.953,0,0,0,1.776,2.451c.808.479-.071.462,18.638.462,11.312,0,17.4-.036,17.661-.1a3.7,3.7,0,0,0,2.762-2.939c.062-.311.08-3.01.071-7.45-.027-7.77.018-7.263-.657-7.778a1.374,1.374,0,0,0-.87-.275,1.441,1.441,0,0,0-1.447.737l-.2.355v6.926a68.975,68.975,0,0,1-.115,7.148l-.115.222-5.035.027-5.035.018v-6.189c0-3.987-.036-6.313-.089-6.526a1.823,1.823,0,0,0-.329-.6c-.462-.559-.169-.533-6.6-.533-6.313,0-6.1-.018-6.544.462-.479.515-.471.364-.471,7.13v6.26H6.238l-.133-.2c-.124-.178-.142-1.225-.142-9.465,0-8.791.009-9.27.16-9.208.08.027.488.16.906.284a5.73,5.73,0,0,0,2.22.24,6.875,6.875,0,0,0,3.214-.533,9.062,9.062,0,0,0,3.525-2.548l.391-.488.329.417a8.829,8.829,0,0,0,4.537,2.957,10.5,10.5,0,0,0,4.209,0,8.942,8.942,0,0,0,4.511-2.948c.169-.213.329-.373.346-.355a10.129,10.129,0,0,0,3.01,2.584,7.646,7.646,0,0,0,3.987.923,6.986,6.986,0,0,0,3.774-.844,8.663,8.663,0,0,0,4-4.04,7.367,7.367,0,0,0,.87-3.863l-.009-1.288-1.465-5.789c-.808-3.188-1.563-5.976-1.669-6.2a3.713,3.713,0,0,0-2.468-1.9C39.75-511.981,6.629-511.981,6.105-511.857Zm8.72,9.643c-.027,6.145-.044,6.677-.2,7.13a5.763,5.763,0,0,1-4.4,3.96,5.528,5.528,0,0,1-5.9-2.983,5.131,5.131,0,0,1-.613-2.531c0-.737.115-1.243,1.394-6.349.808-3.205,1.456-5.612,1.536-5.7.133-.151.444-.16,4.173-.16h4.031Zm13.87-.178a62.786,62.786,0,0,1-.133,7.077,5.636,5.636,0,0,1-3.729,4.067,5.673,5.673,0,0,1-2.833.036,5.471,5.471,0,0,1-3.339-2.815c-.622-1.305-.622-1.225-.622-8.409v-6.411H28.695Zm11.224-6.26c.071.115.755,2.682,1.51,5.71,1.3,5.15,1.385,5.567,1.385,6.34a5.254,5.254,0,0,1-1.19,3.445,5.7,5.7,0,0,1-3.072,1.989,6.812,6.812,0,0,1-1.243.115,5.266,5.266,0,0,1-3.641-1.43,5.346,5.346,0,0,1-1.545-2.335l-.275-.755-.027-6.642-.027-6.633h8ZM27.1-474.927v5.328H19.46v-10.655H27.1Z" transform="translate(0 0)"/>
  </g>
</svg>
