<svg xmlns="http://www.w3.org/2000/svg" width="58.961" height="59.094" viewBox="0 0 58.961 59.094">
  <g id="store-_5_" transform="translate(-0.6 511.95)">
    <path id="Path_1458" data-name="Path 1458" d="M7.757-511.829a5.033,5.033,0,0,0-3.128,2.563c-.15.335-1.12,3.925-2.147,7.988l-1.87,7.387L.6-492.217a8.5,8.5,0,0,0,.265,2.655,17.217,17.217,0,0,0,1.962,4.236l.589.923v13.574c0,9.615.035,13.748.127,14.186a5.138,5.138,0,0,0,2.309,3.186c1.05.623-.092.6,24.229.6,14.706,0,22.624-.046,22.959-.127a4.809,4.809,0,0,0,3.59-3.821c.081-.4.1-3.913.092-9.685-.035-10.1.023-9.442-.854-10.112a1.787,1.787,0,0,0-1.131-.358,1.873,1.873,0,0,0-1.881.958l-.265.462v9c0,7.018-.035,9.061-.15,9.292l-.15.289-6.545.035L39.2-456.9v-8.045c0-5.183-.046-8.207-.115-8.484a2.37,2.37,0,0,0-.427-.785c-.6-.727-.219-.693-8.576-.693-8.207,0-7.93-.023-8.507.6-.623.669-.612.473-.612,9.269v8.138H7.93l-.173-.254c-.162-.231-.185-1.593-.185-12.3,0-11.427.012-12.051.208-11.97.1.035.635.208,1.177.369a7.45,7.45,0,0,0,2.886.312,8.937,8.937,0,0,0,4.179-.693,11.781,11.781,0,0,0,4.583-3.313l.508-.635.427.543a11.477,11.477,0,0,0,5.9,3.844,13.645,13.645,0,0,0,5.471,0,11.624,11.624,0,0,0,5.864-3.832c.219-.277.427-.485.45-.462a13.167,13.167,0,0,0,3.913,3.359,9.939,9.939,0,0,0,5.183,1.2,9.082,9.082,0,0,0,4.906-1.1,11.261,11.261,0,0,0,5.206-5.252,9.577,9.577,0,0,0,1.131-5.021l-.012-1.674-1.9-7.526c-1.05-4.144-2.032-7.768-2.17-8.057a4.826,4.826,0,0,0-3.209-2.47C51.493-511.99,8.438-511.99,7.757-511.829Zm11.335,12.536c-.035,7.988-.058,8.68-.254,9.269a7.492,7.492,0,0,1-5.725,5.148,7.186,7.186,0,0,1-7.664-3.878,6.67,6.67,0,0,1-.8-3.29c0-.958.15-1.616,1.812-8.253,1.05-4.167,1.893-7.3,2-7.411.173-.2.577-.208,5.425-.208h5.24Zm18.03-.231c0,6.914-.035,8.542-.173,9.2a7.327,7.327,0,0,1-4.848,5.287,7.375,7.375,0,0,1-3.682.046,7.112,7.112,0,0,1-4.34-3.659c-.808-1.7-.808-1.593-.808-10.931v-8.334H37.122Zm14.59-8.138c.092.15.981,3.486,1.962,7.422,1.685,6.695,1.8,7.237,1.8,8.242a6.831,6.831,0,0,1-1.547,4.479,7.409,7.409,0,0,1-3.994,2.586,8.861,8.861,0,0,1-1.616.15,6.846,6.846,0,0,1-4.733-1.858,6.95,6.95,0,0,1-2.008-3.036l-.358-.981-.035-8.634-.035-8.622h10.4Zm-16.668,43.84v6.926H25.117v-13.852h9.927Z" transform="translate(0)" fill="#a6a6a6"/>
  </g>
</svg>
