<svg xmlns="http://www.w3.org/2000/svg" width="60.094" height="60.094" viewBox="0 0 60.094 60.094">
  <path id="user_7_" data-name="user (7)" d="M50.439,8.654A29.547,29.547,0,0,0,8.654,50.44,29.547,29.547,0,0,0,50.439,8.654Zm-35.627,42.4a14.961,14.961,0,0,1,29.468,0,26.028,26.028,0,0,1-29.468,0Zm5.339-25.221a9.395,9.395,0,1,1,9.395,9.395,9.405,9.405,0,0,1-9.395-9.395ZM47.28,48.657A18.453,18.453,0,0,0,36.552,36.614a12.857,12.857,0,1,0-14.011,0A18.45,18.45,0,0,0,11.813,48.657a26.084,26.084,0,1,1,35.467,0Zm0,0" transform="translate(0.501 0.5)" fill="#a6a6a6" stroke="#a6a6a6" stroke-width="1"/>
</svg>
