<svg xmlns="http://www.w3.org/2000/svg" width="63.281" height="63.281" viewBox="0 0 63.281 63.281">
  <g id="video-files" transform="translate(0.999 1)">
    <g id="Group_29" data-name="Group 29" transform="translate(0.001)">
      <g id="Group_28" data-name="Group 28" transform="translate(0)">
        <path id="Path_50" data-name="Path 50" d="M55.3,11.012H50.271V5.984A5.991,5.991,0,0,0,44.286,0H5.985A5.991,5.991,0,0,0,0,5.984v38.3A5.991,5.991,0,0,0,5.985,50.27h5.027V55.3A5.991,5.991,0,0,0,17,61.281H55.3A5.991,5.991,0,0,0,61.282,55.3V17A5.991,5.991,0,0,0,55.3,11.012ZM5.985,47.876a3.6,3.6,0,0,1-3.591-3.591V5.984A3.6,3.6,0,0,1,5.985,2.394h38.3a3.6,3.6,0,0,1,3.591,3.591v38.3a3.6,3.6,0,0,1-3.591,3.591Zm52.9,7.421A3.6,3.6,0,0,1,55.3,58.888H17A3.6,3.6,0,0,1,13.406,55.3V50.27h30.88a5.991,5.991,0,0,0,5.984-5.984V13.405H55.3A3.6,3.6,0,0,1,58.888,17Z" transform="translate(-0.001)" fill="#a6a6a6" stroke="#a6a6a6" stroke-width="2"/>
      </g>
    </g>
    <g id="Group_31" data-name="Group 31" transform="translate(15.798 54.698)">
      <g id="Group_30" data-name="Group 30">
        <path id="Path_51" data-name="Path 51" d="M133.209,457h-.032a1.2,1.2,0,1,0,0,2.394h.032a1.2,1.2,0,0,0,0-2.394Z" transform="translate(-131.98 -457.002)" fill="#a6a6a6" stroke="#a6a6a6" stroke-width="2"/>
      </g>
    </g>
    <g id="Group_33" data-name="Group 33" transform="translate(19.269 54.698)">
      <g id="Group_32" data-name="Group 32">
        <path id="Path_52" data-name="Path 52" d="M197.012,457H162.177a1.2,1.2,0,0,0,0,2.394h34.835a1.2,1.2,0,0,0,0-2.394Z" transform="translate(-160.98 -457.002)" fill="#a6a6a6" stroke="#a6a6a6" stroke-width="2"/>
      </g>
    </g>
    <g id="Group_35" data-name="Group 35" transform="translate(11.942 4.189)">
      <g id="Group_34" data-name="Group 34">
        <path id="Path_53" data-name="Path 53" d="M100.994,35h-.032a1.2,1.2,0,0,0,0,2.394h.032a1.2,1.2,0,0,0,0-2.394Z" transform="translate(-99.765 -35)" fill="#a6a6a6" stroke="#a6a6a6" stroke-width="2"/>
      </g>
    </g>
    <g id="Group_37" data-name="Group 37" transform="translate(4.789 4.189)">
      <g id="Group_36" data-name="Group 36">
        <path id="Path_54" data-name="Path 54" d="M44.912,35H41.2a1.2,1.2,0,0,0,0,2.394h3.714a1.2,1.2,0,0,0,0-2.394Z" transform="translate(-40.001 -35)" fill="#a6a6a6" stroke="#a6a6a6" stroke-width="2"/>
      </g>
    </g>
    <g id="Group_39" data-name="Group 39" transform="translate(15.002 14.063)">
      <g id="Group_38" data-name="Group 38">
        <path id="Path_55" data-name="Path 55" d="M145.458,127.507a4.055,4.055,0,0,0-1.906-2.475l-5.855-3.38c-.059-.038-.118-.075-.178-.109l-5.84-3.372a4.1,4.1,0,0,0-6.348,3.422V135.55a1.218,1.218,0,0,0,.009.144,4.089,4.089,0,0,0,6.136,3.4l6.043-3.489q.051-.03.1-.064l5.891-3.4a4.085,4.085,0,0,0,1.949-4.629Zm-2.477,1.907a1.687,1.687,0,0,1-.643.635l-.018.01-6,3.464q-.052.03-.1.064l-5.943,3.432a1.7,1.7,0,0,1-2.546-1.466,1.175,1.175,0,0,0-.006-.121V121.593h0a1.7,1.7,0,0,1,2.652-1.413q.035.024.071.045l5.876,3.392c.029.017.058.035.086.053l.061.038,5.886,3.4a1.69,1.69,0,0,1,.623,2.307Z" transform="translate(-125.332 -117.497)" fill="#a6a6a6" stroke="#a6a6a6" stroke-width="2"/>
      </g>
    </g>
  </g>
</svg>
